<?xml version="1.0" encoding="UTF-8"?>
<svg version="1.1" xmlns="http://www.w3.org/2000/svg" width="128" height="128">
<path d="M0 0 C0.77214844 0.2990625 1.54429688 0.598125 2.33984375 0.90625 C18.60414821 7.86286339 27.49051443 25.68079243 33.89819336 41.17138672 C35.66235869 45.70988187 36.59398483 48.31180932 35 53 C26.31567845 70.46135827 12.92447784 82.91848788 -5 90 C-6.37285156 90.54333984 -6.37285156 90.54333984 -7.7734375 91.09765625 C-22.5318943 95.97929965 -38.18837058 93.43154066 -52 87 C-59.65625182 83.06075287 -66.19983405 78.22806298 -72.078125 71.91015625 C-77.78334532 66.23972386 -85.16958673 62.17414144 -92 58 C-91.02330764 38.79171683 -79.16532686 21.67956916 -65.453125 8.9375 C-58.01073106 2.39148279 -49.30843173 -0.93387806 -40 -4 C-27.30023798 -8.23325401 -11.90541406 -5.23047565 0 0 Z " fill="#9E98A2" transform="translate(92,20)"/>
<path d="M0 0 C7.25371627 4.25564769 13.42579726 10.58230435 16.375 18.5625 C18.5037516 28.81921226 17.85148634 38.43502276 12.375 47.5625 C6.65173735 55.32682981 0.47677704 59.52857432 -8.625 62.5625 C-20.28157351 63.40203161 -28.55861125 61.9769903 -37.6171875 54.44921875 C-43.60348225 48.82396513 -47.24303245 42.28738633 -47.91015625 34.03515625 C-48.19303872 21.72361918 -46.60170669 14.77838076 -38.04296875 5.80078125 C-27.83447814 -3.64908163 -12.75545321 -5.91225872 0 0 Z " fill="#402525" transform="translate(79.625,32.4375)"/>
<path d="M0 0 C0.515625 0.268125 1.03125 0.53625 1.5625 0.8125 C3.52502289 1.76860089 5.53806512 2.62062277 7.5625 3.4375 C12.17857143 5.53571429 12.17857143 5.53571429 14 8 C14 8.66 14 9.32 14 10 C14.99 10.33 15.98 10.66 17 11 C17.94921875 13.06640625 17.94921875 13.06640625 18.6875 15.5625 C18.93886719 16.38878906 19.19023438 17.21507813 19.44921875 18.06640625 C19.63097656 18.70449219 19.81273438 19.34257813 20 20 C20.33 20 20.66 20 21 20 C21.3726827 27.38463859 20.69497369 33.13894312 18 40 C17.72414063 40.95390625 17.44828125 41.9078125 17.1640625 42.890625 C14.99958434 48.67225121 10.79131925 53.19337831 7 58 C6.44570312 58.75796875 5.89140625 59.5159375 5.3203125 60.296875 C2.63760978 63.80614018 1.68309046 64.85442334 -2.8125 65.8125 C-3.864375 65.874375 -4.91625 65.93625 -6 66 C-6.33 66.66 -6.66 67.32 -7 68 C-12.27165084 69.45108159 -17.58320735 69.14292329 -23 69 C-23.91523437 68.99484375 -24.83046875 68.9896875 -25.7734375 68.984375 C-32.42400075 68.71759023 -36.82938803 66.81652192 -42.5078125 63.40625 C-45.08175643 61.81274181 -45.08175643 61.81274181 -48.625 61.0625 C-53.49568296 59.52913684 -57.51114567 56.73591913 -61 53 C-61.7578125 50.26953125 -61.7578125 50.26953125 -62 48 C-62.66 48 -63.32 48 -64 48 C-65.69158351 42.74499877 -66.44861432 37.87771927 -66.75 32.375 C-66.80542969 31.63765625 -66.86085938 30.9003125 -66.91796875 30.140625 C-67.25624249 24.42072361 -66.70761384 21.05596707 -63.046875 16.6484375 C-53.29896907 7 -53.29896907 7 -48 7 C-48 6.34 -48 5.68 -48 5 C-46.68 4.67 -45.36 4.34 -44 4 C-44.99898325 6.00692599 -46.00467365 8.00902984 -47.03515625 10 C-47.37417969 10.66 -47.71320312 11.32 -48.0625 12 C-48.40410156 12.66 -48.74570312 13.32 -49.09765625 14 C-52.24231202 20.96997295 -52.20510407 30.40881549 -50.28125 37.73828125 C-49.33154553 39.95553484 -48.26896149 41.95046022 -47 44 C-46.649375 44.62261719 -46.29875 45.24523437 -45.9375 45.88671875 C-42.10069434 52.02827225 -36.31884534 55.59587313 -29.75 58.375 C-20.37041254 59.93826458 -12.30949787 59.88098554 -4 55 C-2.948125 54.401875 -1.89625 53.80375 -0.8125 53.1875 C5.24692553 48.47461348 9.83664869 42.75916444 11.6875 35.1875 C13.04474319 21.34361946 10.10604423 12.87358334 1.625 1.9375 C1.08875 1.298125 0.5525 0.65875 0 0 Z " fill="#CCC5C6" transform="translate(84,35)"/>
<path d="M0 0 C3.05578932 2.70655626 3.21572166 5.52371451 3.5 9.4375 C3.34880137 14.46905453 1.58532994 16.58540006 -2 20 C-4.98997825 21.49498913 -7.70042775 21.11577446 -11 21 C-11.99 20.67 -12.98 20.34 -14 20 C-14.61448712 28.99671143 -14.61448712 28.99671143 -12.4375 37.5625 C-11.633125 38.366875 -10.82875 39.17125 -10 40 C-9.32324219 40.72123047 -9.32324219 40.72123047 -8.6328125 41.45703125 C-4.04349741 45.60111428 0.83222753 45.79829894 6.8359375 45.54296875 C12.59088286 44.55539171 15.90813765 41.80749947 19.3359375 37.20703125 C22.4670974 31.82188035 22.77498132 26.12050802 23 20 C25.76223278 22.76223278 25.57856291 25.20706617 26 29 C26.66 29 27.32 29 28 29 C29.32977451 35.01192173 30.03223093 40.88949429 29 47 C24.83662908 53.26127731 16.94806305 56.68397898 10 59 C-1.65657351 59.83953161 -9.93361125 58.4144903 -18.9921875 50.88671875 C-24.97848225 45.26146513 -28.61803245 38.72488633 -29.28515625 30.47265625 C-29.4795083 22.01411703 -29.40840885 14.23468978 -23.9375 7.4375 C-22 6 -22 6 -20 6 C-19.5875 5.38125 -19.175 4.7625 -18.75 4.125 C-14.41480098 -1.13917024 -6.30261827 -0.94943288 0 0 Z " fill="#90653B" transform="translate(61,36)"/>
<path d="M0 0 C0.77214844 0.2990625 1.54429688 0.598125 2.33984375 0.90625 C18.6182283 7.86888577 27.46536662 25.67966217 33.90039062 41.16699219 C35.0971261 44.23450267 36 46.68041405 36 50 C33.36 50 30.72 50 28 50 C27.5875 48.99582031 27.175 47.99164063 26.75 46.95703125 C18.45169522 27.14047485 9.461887 14.52821551 -10 5 C-10 4.34 -10 3.68 -10 3 C-30.59448855 2.50899557 -47.87932222 2.25566248 -63.75268555 17.26855469 C-74.16931257 27.57920569 -84.9429095 42.04201335 -87 57 C-88.65 57 -90.3 57 -92 57 C-90.9007044 38.3119748 -78.76252248 21.30526303 -65.453125 8.9375 C-58.01073106 2.39148279 -49.30843173 -0.93387806 -40 -4 C-27.30023798 -8.23325401 -11.90541406 -5.23047565 0 0 Z " fill="#454042" transform="translate(92,20)"/>
<path d="M0 0 C0.99 0.99 0.99 0.99 2 2 C3.58397231 2.56069816 5.19271967 3.05316405 6.8125 3.5 C10.30287863 4.49508624 13.66366543 5.55425502 17 7 C17 7.66 17 8.32 17 9 C17.99 9 18.98 9 20 9 C20 9.66 20 10.32 20 11 C20.61875 11.28875 21.2375 11.5775 21.875 11.875 C24 13 24 13 26 15 C27.36801294 20.1873912 27.25920289 25.42028935 27.3125 30.75 C27.35600586 32.17699219 27.35600586 32.17699219 27.40039062 33.6328125 C27.45333794 39.57920324 26.64717435 43.85351308 23.86401367 49.13378906 C22.78993278 51.11097808 22.78993278 51.11097808 23 54 C23.99 53.34 24.98 52.68 26 52 C25.71382813 52.56847656 25.42765625 53.13695312 25.1328125 53.72265625 C24.39825633 55.19936745 23.68334755 56.6860803 22.9921875 58.18359375 C18.65211173 66.93962073 13.01177389 69.31802064 4.0625 72.5625 C2.93972656 72.93503906 1.81695312 73.30757813 0.66015625 73.69140625 C-2.16089688 74.71360456 -2.16089688 74.71360456 -2.87890625 77.15234375 C-2.91886719 77.76207031 -2.95882812 78.37179688 -3 79 C1.43445666 78.60406637 5.17894328 78.05449707 9.3125 76.375 C13 75 13 75 16 76 C0.69773019 83.4433263 -14.84106236 85.90792896 -31.25 80.5625 C-43.3488313 76.2800868 -53.38617178 69.53152421 -62 60 C-62.95286026 59.05693778 -63.9104955 58.11864988 -64.875 57.1875 C-67 55 -67 55 -69 52 C-68.236875 52.309375 -67.47375 52.61875 -66.6875 52.9375 C-64.81210323 53.67893593 -62.91315348 54.36228217 -61 55 C-61.78375 54.21625 -62.5675 53.4325 -63.375 52.625 C-68.04760771 47.95239229 -68.63822828 45.83888253 -69.10546875 39.25 C-68.94386178 34.270111 -67.2461661 30.38121443 -65 26 C-64.67 25.29488281 -64.34 24.58976562 -64 23.86328125 C-62.49286845 21.05507129 -60.29919866 19.19701205 -58 17 C-57.42507812 16.36964844 -56.85015625 15.73929688 -56.2578125 15.08984375 C-55.65710937 14.44144531 -55.05640625 13.79304688 -54.4375 13.125 C-53.87933594 12.50882813 -53.32117187 11.89265625 -52.74609375 11.2578125 C-51 10 -51 10 -48.84765625 10.1796875 C-47 11 -47 11 -46 13 C-46.49628906 13.27972656 -46.99257813 13.55945312 -47.50390625 13.84765625 C-56.16030402 18.87218344 -56.16030402 18.87218344 -61.58959961 26.86767578 C-62.25863994 30.34381989 -61.86755548 33.8045413 -61.625 37.3125 C-61.58117187 38.04662109 -61.53734375 38.78074219 -61.4921875 39.53710938 C-61.20268306 44.0686581 -60.69933846 48.51356601 -60 53 C-59.34 53 -58.68 53 -58 53 C-57.67 53.86625 -57.34 54.7325 -57 55.625 C-54.19699334 60.35507375 -50.3417301 63.91459554 -45.015625 65.64453125 C-43.69892633 65.92630477 -42.37831024 66.19028642 -41.0546875 66.4375 C-38.61144539 67.10637236 -36.83119792 68.21982799 -34.6875 69.5625 C-25.48778861 74.88206101 -13.33119369 73.11666342 -3 73 C-2.505 71.515 -2.505 71.515 -2 70 C-0.93910156 69.938125 0.12179688 69.87625 1.21484375 69.8125 C5.77178255 68.83433357 6.79995881 67.66303804 9.5625 64 C10.31917969 63.00097656 11.07585937 62.00195312 11.85546875 60.97265625 C12.56316406 59.99167969 13.27085938 59.01070312 14 58 C14.59425781 57.21496094 15.18851562 56.42992187 15.80078125 55.62109375 C19.58474522 50.37236953 21.43432543 45.24017059 23 39 C23.33 38.01 23.66 37.02 24 36 C24.06740865 34.43881572 24.08514456 32.8749748 24.0625 31.3125 C24.05347656 30.50425781 24.04445313 29.69601563 24.03515625 28.86328125 C24.02355469 28.24839844 24.01195313 27.63351563 24 27 C23.67 27 23.34 27 23 27 C22.88785156 26.14728516 22.88785156 26.14728516 22.7734375 25.27734375 C21.72270983 19.10689399 19.82019789 15.07535495 15 11 C12.43344683 9.38093705 9.79977166 8.15982834 7 7 C6.34128906 6.71253906 5.68257813 6.42507812 5.00390625 6.12890625 C3.34141386 5.4065343 1.67123141 4.70191719 0 4 C-0.99 3.505 -0.99 3.505 -2 3 C-2 2.34 -2 1.68 -2 1 C-1.34 0.67 -0.68 0.34 0 0 Z " fill="#B2A7A9" transform="translate(80,30)"/>
<path d="M0 0 C7.25371627 4.25564769 13.42579726 10.58230435 16.375 18.5625 C18.52302615 28.91208052 17.76295283 38.29522113 12.375 47.5625 C11.385 48.2225 10.395 48.8825 9.375 49.5625 C9.375 43.9525 9.375 38.3425 9.375 32.5625 C8.715 32.5625 8.055 32.5625 7.375 32.5625 C6.9625 31.345625 6.55 30.12875 6.125 28.875 C4.72652684 25.16316469 3.08248254 22.50887806 0.375 19.5625 C-0.346875 18.69625 -1.06875 17.83 -1.8125 16.9375 C-5.44774255 13.86773963 -9.08308651 12.77961407 -13.625 11.5625 C-13.955 13.2125 -14.285 14.8625 -14.625 16.5625 C-14.955 16.5625 -15.285 16.5625 -15.625 16.5625 C-15.75777344 15.87542969 -15.89054687 15.18835938 -16.02734375 14.48046875 C-16.20394531 13.57941406 -16.38054688 12.67835937 -16.5625 11.75 C-16.73652344 10.85667969 -16.91054688 9.96335937 -17.08984375 9.04296875 C-17.60241153 6.44852829 -17.60241153 6.44852829 -18.625 3.5625 C-20.43793089 3.70287521 -22.2503443 3.84994889 -24.0625 4 C-25.07183594 4.08121094 -26.08117187 4.16242187 -27.12109375 4.24609375 C-29.56140779 4.29461468 -29.56140779 4.29461468 -30.625 5.5625 C-32.29117115 5.60313832 -33.95888095 5.605221 -35.625 5.5625 C-35.893125 6.18125 -36.16125 6.8 -36.4375 7.4375 C-37.625 9.5625 -37.625 9.5625 -40.625 11.5625 C-40.06358582 7.91330783 -38.76670335 6.38748339 -36 4 C-35.34773438 3.42121094 -34.69546875 2.84242187 -34.0234375 2.24609375 C-24.3912088 -4.51529154 -10.60128952 -4.86173787 0 0 Z " fill="#775429" transform="translate(79.625,32.4375)"/>
<path d="M0 0 C3.26835963 4.35781284 6 8.4280149 6 14 C8.64 14 11.28 14 14 14 C7.98176199 28.09334217 -3.08939874 43.69261649 -17.74609375 49.625 C-24.02086497 51.91715031 -30.32272106 53.591187 -37 54 C-37.33 53.34 -37.66 52.68 -38 52 C-37.67 51.34 -37.34 50.68 -37 50 C-38.32 49.67 -39.64 49.34 -41 49 C-40.05253906 48.79697266 -40.05253906 48.79697266 -39.0859375 48.58984375 C-25.88833933 45.41405284 -13.01310256 39.65791613 -5.6015625 27.75390625 C-4.13256093 24.91487839 -3.01008522 22.03025566 -2 19 C-1.34 19 -0.68 19 0 19 C0 12.73 0 6.46 0 0 Z " fill="#887A7C" transform="translate(114,56)"/>
<path d="M0 0 C2.76223278 2.76223278 2.57856291 5.20706617 3 9 C3.66 9 4.32 9 5 9 C6.32286246 13.96073422 6.08893197 18.91111512 6 24 C5.38125 24.2475 4.7625 24.495 4.125 24.75 C1.59029306 26.24100408 1.26548949 27.41464451 0 30 C-1.875 31.44921875 -1.875 31.44921875 -4 32.6875 C-4.70125 33.10386719 -5.4025 33.52023438 -6.125 33.94921875 C-11.72113719 37.0853873 -17.70370507 36.50667609 -24 36 C-27.26562028 35.06885692 -30.18510021 33.91385246 -33 32 C-33.33 31.34 -33.66 30.68 -34 30 C-33.01 30 -32.02 30 -31 30 C-31.33 27.36 -31.66 24.72 -32 22 C-31.278125 22.495 -30.55625 22.99 -29.8125 23.5 C-24.56474536 26.08024991 -18.66204038 25.83651634 -13 25 C-7.57560858 22.66793881 -4.03649295 18.65658091 -1.67578125 13.30078125 C-0.39879156 8.95311114 -0.16578138 4.50925362 0 0 Z " fill="#CDA61A" transform="translate(84,56)"/>
<path d="M0 0 C-0.99898325 2.00692599 -2.00467365 4.00902984 -3.03515625 6 C-3.37417969 6.66 -3.71320312 7.32 -4.0625 8 C-4.40410156 8.66 -4.74570312 9.32 -5.09765625 10 C-8.22118005 16.923135 -8.34930144 26.59023755 -6.140625 33.80859375 C-5.45188815 35.28837981 -4.72696743 36.75219692 -3.95703125 38.19140625 C-2.78838624 40.39990681 -2.31855662 42.53118623 -2 45 C-3.32 45 -4.64 45 -6 45 C-6 44.34 -6 43.68 -6 43 C-6.886875 42.71125 -7.77375 42.4225 -8.6875 42.125 C-11.50471335 41.16821056 -14.24427605 40.11731227 -17 39 C-17.33604352 36.08362234 -17.66893586 33.16694348 -18 30.25 C-18.09539063 29.425 -18.19078125 28.6 -18.2890625 27.75 C-18.42441406 26.55117187 -18.42441406 26.55117187 -18.5625 25.328125 C-18.64628906 24.5949707 -18.73007812 23.86181641 -18.81640625 23.10644531 C-19.18475684 18.88021007 -19.25121809 17.35473727 -16.734375 13.80078125 C-15.74992152 12.62925507 -14.7546778 11.46672908 -13.75 10.3125 C-13.25886719 9.71888672 -12.76773437 9.12527344 -12.26171875 8.51367188 C-9.64623922 5.45530448 -7.96882745 3.70659568 -4 3 C-4 2.34 -4 1.68 -4 1 C-2 0 -2 0 0 0 Z " fill="#F5F3F4" transform="translate(40,39)"/>
<path d="M0 0 C7.25371627 4.25564769 13.42579726 10.58230435 16.375 18.5625 C18.52302615 28.91208052 17.76295283 38.29522113 12.375 47.5625 C11.385 48.2225 10.395 48.8825 9.375 49.5625 C11.25 43.6875 11.25 43.6875 12.375 42.5625 C12.4768333 39.905849 12.51683323 37.28156481 12.5 34.625 C12.49516602 33.85244873 12.49033203 33.07989746 12.48535156 32.28393555 C12.62604728 20.12493022 12.62604728 20.12493022 7.375 9.5625 C7.375 8.9025 7.375 8.2425 7.375 7.5625 C6.05241528 6.87475595 4.71513497 6.21538627 3.375 5.5625 C2.36566406 5.04945312 1.35632813 4.53640625 0.31640625 4.0078125 C-4.14107856 2.11255427 -8.34303042 2.15556932 -13.125 2.25 C-13.94097656 2.24677734 -14.75695312 2.24355469 -15.59765625 2.24023438 C-23.66707324 2.17161335 -23.66707324 2.17161335 -30.625 5.5625 C-32.29117115 5.60313832 -33.95888095 5.605221 -35.625 5.5625 C-35.893125 6.18125 -36.16125 6.8 -36.4375 7.4375 C-37.625 9.5625 -37.625 9.5625 -40.625 11.5625 C-40.06358582 7.91330783 -38.76670335 6.38748339 -36 4 C-35.34773438 3.42121094 -34.69546875 2.84242187 -34.0234375 2.24609375 C-24.3912088 -4.51529154 -10.60128952 -4.86173787 0 0 Z " fill="#623E17" transform="translate(79.625,32.4375)"/>
<path d="M0 0 C0.66 0.66 1.32 1.32 2 2 C3.58397231 2.56069816 5.19271967 3.05316405 6.8125 3.5 C10.30287863 4.49508624 13.66366543 5.55425502 17 7 C17 7.66 17 8.32 17 9 C17.99 9 18.98 9 20 9 C20 9.66 20 10.32 20 11 C20.61875 11.28875 21.2375 11.5775 21.875 11.875 C24 13 24 13 26 15 C29.65753947 29.03604727 27.85414319 43.44989295 21 56 C20.67 56.99 20.34 57.98 20 59 C19.34 59 18.68 59 18 59 C17.5978125 59.8971875 17.5978125 59.8971875 17.1875 60.8125 C14.51717077 65.73152753 11.0444122 67.00127064 6 69 C7.38347641 65.91955007 9.01600525 63.71453095 11.3125 61.25 C17.45481003 54.32872758 20.65123788 47.93481807 23 39 C23.33 38.01 23.66 37.02 24 36 C24.06740865 34.43881572 24.08514456 32.8749748 24.0625 31.3125 C24.05347656 30.50425781 24.04445313 29.69601563 24.03515625 28.86328125 C24.02355469 28.24839844 24.01195313 27.63351563 24 27 C23.67 27 23.34 27 23 27 C22.92523438 26.43152344 22.85046875 25.86304687 22.7734375 25.27734375 C21.72270983 19.10689399 19.82019789 15.07535495 15 11 C12.43344683 9.38093705 9.79977166 8.15982834 7 7 C6.34128906 6.71253906 5.68257813 6.42507812 5.00390625 6.12890625 C3.34141386 5.4065343 1.67123141 4.70191719 0 4 C-0.66 3.67 -1.32 3.34 -2 3 C-2 2.34 -2 1.68 -2 1 C-1.34 0.67 -0.68 0.34 0 0 Z " fill="#B3ACAF" transform="translate(80,30)"/>
<path d="M0 0 C2.76223278 2.76223278 2.57856291 5.20706617 3 9 C3.66 9 4.32 9 5 9 C6.32286246 13.96073422 6.08893197 18.91111512 6 24 C5.38125 24.2475 4.7625 24.495 4.125 24.75 C1.59029306 26.24100408 1.26548949 27.41464451 0 30 C-1.875 31.44921875 -1.875 31.44921875 -4 32.6875 C-4.70125 33.10386719 -5.4025 33.52023438 -6.125 33.94921875 C-11.72113719 37.0853873 -17.70370507 36.50667609 -24 36 C-27.26562028 35.06885692 -30.18510021 33.91385246 -33 32 C-33.33 31.34 -33.66 30.68 -34 30 C-33.01 30 -32.02 30 -31 30 C-31.33 27.36 -31.66 24.72 -32 22 C-30.125 22.625 -30.125 22.625 -28 24 C-27.33333333 26 -26.66666667 28 -26 30 C-20.95290317 33.69799218 -13.78942666 31.80445336 -8 31 C-4.43454394 30.09392701 -1.84903009 28.79242809 0.875 26.25 C2.38822699 23.22354601 2.67836439 20.34501037 3 17 C2.01 17 1.02 17 0 17 C-1.0625 15.125 -1.0625 15.125 -2 13 C-1.67 12.34 -1.34 11.68 -1 11 C-0.7724985 9.12943209 -0.59037189 7.25314042 -0.4375 5.375 C-0.35371094 4.37210938 -0.26992187 3.36921875 -0.18359375 2.3359375 C-0.09271484 1.17964844 -0.09271484 1.17964844 0 0 Z " fill="#C2920F" transform="translate(84,56)"/>
<path d="M0 0 C2.76142665 1.01736771 3.68085371 1.36170741 5 4 C5.27916524 6.93123498 5.48851034 9.15617194 5 12 C2.04074089 15.15654305 -1.05231025 15.21940675 -5.1875 15.375 C-7.79296875 15.3984375 -7.79296875 15.3984375 -10 15 C-12.50031654 11.24952518 -12.53603554 9.44143734 -12 5 C-8.54452318 0.07856332 -5.88775561 -0.74935071 0 0 Z " fill="#F4F1F0" transform="translate(57,38)"/>
<path d="M0 0 C1.84765625 0.8203125 1.84765625 0.8203125 2.84765625 2.8203125 C2.10322266 3.23990234 2.10322266 3.23990234 1.34375 3.66796875 C-7.31264777 8.69249594 -7.31264777 8.69249594 -12.74194336 16.68798828 C-13.41098369 20.16413239 -13.01989923 23.6248538 -12.77734375 27.1328125 C-12.73351562 27.86693359 -12.6896875 28.60105469 -12.64453125 29.35742188 C-12.35502681 33.8889706 -11.85168221 38.33387851 -11.15234375 42.8203125 C-10.49234375 42.8203125 -9.83234375 42.8203125 -9.15234375 42.8203125 C-8.82234375 43.8103125 -8.49234375 44.8003125 -8.15234375 45.8203125 C-12.4135589 45.34684415 -14.33607513 42.85891812 -17.15234375 39.8203125 C-17.81234375 39.1603125 -18.47234375 38.5003125 -19.15234375 37.8203125 C-21.01065952 29.54949865 -19.9695658 23.26591876 -16.15234375 15.8203125 C-15.82234375 15.11519531 -15.49234375 14.41007812 -15.15234375 13.68359375 C-13.6452122 10.87538379 -11.45154241 9.01732455 -9.15234375 6.8203125 C-8.57742187 6.18996094 -8.0025 5.55960938 -7.41015625 4.91015625 C-6.50910156 3.93755859 -6.50910156 3.93755859 -5.58984375 2.9453125 C-5.03167969 2.32914063 -4.47351562 1.71296875 -3.8984375 1.078125 C-2.15234375 -0.1796875 -2.15234375 -0.1796875 0 0 Z " fill="#C2B5BD" transform="translate(31.15234375,40.1796875)"/>
<path d="M0 0 C0.74572266 0.00064453 1.49144531 0.00128906 2.25976562 0.00195312 C5.77385471 0.03016615 8.9324875 0.24665243 12.3125 1.1875 C12.3125 2.1775 12.3125 3.1675 12.3125 4.1875 C16.74695666 3.79156637 20.49144328 3.24199707 24.625 1.5625 C28.3125 0.1875 28.3125 0.1875 31.3125 1.1875 C21.6355268 5.89457092 12.84226242 8.44298162 2.0625 8.5 C1.30590088 8.50547852 0.54930176 8.51095703 -0.23022461 8.51660156 C-5.06112726 8.45505464 -9.10142293 7.71012612 -13.6875 6.1875 C-13.6875 5.5275 -13.6875 4.8675 -13.6875 4.1875 C-14.3475 4.1875 -15.0075 4.1875 -15.6875 4.1875 C-15.6875 3.5275 -15.6875 2.8675 -15.6875 2.1875 C-10.30651103 0.38909814 -5.65321746 -0.09430301 0 0 Z " fill="#A09495" transform="translate(64.6875,104.8125)"/>
<path d="M0 0 C5.22470706 4.441001 7.16786 9.35528769 7.75 16 C7.84996189 17.99923787 7.9347607 19.99932804 8 22 C8.0515625 22.721875 8.103125 23.44375 8.15625 24.1875 C8.36657765 28.25383448 7.57666617 29.94617343 5 33 C4.5875 34.0725 4.175 35.145 3.75 36.25 C1.75171733 41.18693366 -2.17221223 46.58610611 -7 49 C-6.05055084 46.37075618 -5.20158587 44.24996648 -3.4375 42.0625 C-1.59429312 39.41789882 -1.4526788 37.16875163 -1 34 C-0.3400321 32.33066942 0.32558869 30.6635479 1 29 C1 28.01 1 27.02 1 26 C1.01138417 24.42968504 1.0231471 22.85937281 1.03515625 21.2890625 C1.04446339 19.40104261 1.05357017 17.51302172 1.0625 15.625 C1.07087891 14.67882813 1.07925781 13.73265625 1.08789062 12.7578125 C1.09111328 11.84 1.09433594 10.9221875 1.09765625 9.9765625 C1.10289307 9.14205566 1.10812988 8.30754883 1.11352539 7.44775391 C0.99436109 4.87841785 0.56540618 2.50589807 0 0 Z " fill="#978688" transform="translate(107,44)"/>
<path d="M0 0 C0.75 1.6875 0.75 1.6875 1 4 C-0.78517826 6.64698845 -2.12021246 8.56010623 -5 10 C-5.83754364 11.97908504 -5.83754364 11.97908504 -6.5 14.3125 C-7.22014943 16.68038263 -7.86885582 18.77119526 -9.1015625 20.921875 C-10.99818676 25.30884936 -9.87190635 30.42719618 -9 35 C-7.36318104 38.02863914 -7.36318104 38.02863914 -5 40 C-4.2575 40.763125 -3.515 41.52625 -2.75 42.3125 C-2.1725 42.869375 -1.595 43.42625 -1 44 C-1.763125 43.690625 -2.52625 43.38125 -3.3125 43.0625 C-5.18789677 42.32106407 -7.08684652 41.63771783 -9 41 C-8.67 41.66 -8.34 42.32 -8 43 C-11.17989806 41.46205865 -14.21481974 39.743521 -17.25 37.9375 C-18.14203125 37.41027344 -19.0340625 36.88304687 -19.953125 36.33984375 C-20.62859375 35.89769531 -21.3040625 35.45554688 -22 35 C-22 34.67 -22 34.34 -22 34 C-20.35 34 -18.7 34 -17 34 C-16.91363281 33.01128906 -16.82726562 32.02257812 -16.73828125 31.00390625 C-16.09493177 26.52524744 -14.27122013 22.91207325 -12.1875 18.9375 C-11.84396484 18.25623047 -11.50042969 17.57496094 -11.14648438 16.87304688 C-8.02648956 10.77939847 -4.35624516 5.28972626 0 0 Z " fill="#8C808B" transform="translate(22,43)"/>
<path d="M0 0 C0.99 0 1.98 0 3 0 C3.33 0.66 3.66 1.32 4 2 C4.66 1.67 5.32 1.34 6 1 C6.061875 1.78375 6.12375 2.5675 6.1875 3.375 C6.455625 4.24125 6.72375 5.1075 7 6 C9.11785113 7.11785113 9.11785113 7.11785113 12 8 C14.33227121 9.24796968 16.62113754 10.56027876 18.9140625 11.87890625 C24.83863972 15.06308914 31.46258645 14.63311187 38 14 C43.75113168 12.02841716 48.01355109 8.50082942 52 4 C52.66 4.66 53.32 5.32 54 6 C45.13354317 14.39483679 37.69255044 18.3575311 25.3515625 18.20703125 C16.55519319 17.66366578 10.35724638 14.00124059 4 8 C0 3.2688172 0 3.2688172 0 0 Z " fill="#8F5F25" transform="translate(36,77)"/>
<path d="M0 0 C0.66 0.33 1.32 0.66 2 1 C-2.95 7.435 -2.95 7.435 -8 14 C-7.34 14.33 -6.68 14.66 -6 15 C-5.52135341 18.65062994 -5.21144411 22.27532605 -4.96484375 25.94726562 C-4.51525126 31.09213065 -3.39767622 34.88685642 -0.83544922 39.38647461 C0 41 0 41 0 43 C-2.4375 42.1875 -2.4375 42.1875 -5 41 C-5.495 39.515 -5.495 39.515 -6 38 C-6.66 38 -7.32 38 -8 38 C-9.69158351 32.74499877 -10.44861432 27.87771927 -10.75 22.375 C-10.80542969 21.63765625 -10.86085938 20.9003125 -10.91796875 20.140625 C-11.26462776 14.27893625 -10.72220976 10.95536091 -6.8359375 6.54296875 C-6.02382813 5.76566406 -5.21171875 4.98835938 -4.375 4.1875 C-3.55773437 3.39730469 -2.74046875 2.60710938 -1.8984375 1.79296875 C-0.95871094 0.90544922 -0.95871094 0.90544922 0 0 Z " fill="#D2C9CF" transform="translate(28,45)"/>
<path d="M0 0 C0 4.0436392 -1.7041209 5.72017272 -4 9 C-4.37640625 9.80179688 -4.7528125 10.60359375 -5.140625 11.4296875 C-7.76630366 15.05930212 -10.94082499 16.38941719 -14.9375 18.25 C-15.65357422 18.600625 -16.36964844 18.95125 -17.10742188 19.3125 C-22.15279707 21.74400612 -26.31701417 23.08169731 -31.95703125 23.28125 C-33.37918945 23.33732422 -33.37918945 23.33732422 -34.83007812 23.39453125 C-35.81427734 23.42933594 -36.79847656 23.46414062 -37.8125 23.5 C-43.94341772 23.71939666 -49.94398307 23.98644068 -56 25 C-56 24.34 -56 23.68 -56 23 C-58.31 22.01 -60.62 21.02 -63 20 C-60 19 -60 19 -57 20 C-47.36196708 21.18464441 -37.68974636 21.11194829 -28 21 C-27.505 19.515 -27.505 19.515 -27 18 C-25.865625 17.95875 -24.73125 17.9175 -23.5625 17.875 C-18.15152521 17.21066324 -14.11117162 14.46246604 -10 11 C-9.18982422 9.91138672 -9.18982422 9.91138672 -8.36328125 8.80078125 C-7.91339844 8.20652344 -7.46351562 7.61226563 -7 7 C-6.34 7 -5.68 7 -5 7 C-4.9175 6.21625 -4.835 5.4325 -4.75 4.625 C-4 2 -4 2 -1.9375 0.6875 C-1.298125 0.460625 -0.65875 0.23375 0 0 Z " fill="#AFA2A1" transform="translate(105,82)"/>
<path d="M0 0 C0.37929126 3.22397572 -0.05522058 5.14081249 -1.25 8.1875 C-5.42831811 12.46077988 -10.22199341 12.47307487 -16 13 C-16 12.01 -16 11.02 -16 10 C-18.64 10 -21.28 10 -24 10 C-24 9.67 -24 9.34 -24 9 C-23.38253906 8.91363281 -22.76507813 8.82726562 -22.12890625 8.73828125 C-14.81000139 7.52403372 -6.47720483 0 0 0 Z " fill="#DCB921" transform="translate(85,74)"/>
<path d="M0 0 C3.29728107 4.20241705 6 8.52961599 6 14 C7.98 14 9.96 14 12 14 C12 14.33 12 14.66 12 15 C11.23558594 15.06703125 10.47117187 15.1340625 9.68359375 15.203125 C6.85880057 15.75272579 6.85880057 15.75272579 5.41015625 18.109375 C4.96542969 18.98078125 4.52070312 19.8521875 4.0625 20.75 C1.54794485 25.30885583 -0.78388774 27.98849124 -5 31 C-3.87548273 28.0280615 -2.77706209 25.66559313 -1 23 C0.12714659 15.41834417 0.15547614 7.65288107 0 0 Z " fill="#7D6C6C" transform="translate(114,56)"/>
<path d="M0 0 C2.76223278 2.76223278 2.57856291 5.20706617 3 9 C3.66 9 4.32 9 5 9 C6.32286246 13.96073422 6.08893197 18.91111512 6 24 C5.360625 24.29003906 4.72125 24.58007812 4.0625 24.87890625 C1.52269222 26.25944571 1.23652478 27.44966765 0 30 C-2.125 31.75 -2.125 31.75 -4 33 C-4.66 32.67 -5.32 32.34 -6 32 C-4.50260417 30.79557292 -3.00520833 29.59114583 -1.5078125 28.38671875 C2.16560476 25.00831687 2.46137626 21.75784303 3 17 C2.01 17 1.02 17 0 17 C-1.0625 15.125 -1.0625 15.125 -2 13 C-1.67 12.34 -1.34 11.68 -1 11 C-0.7724985 9.12943209 -0.59037189 7.25314042 -0.4375 5.375 C-0.35371094 4.37210938 -0.26992187 3.36921875 -0.18359375 2.3359375 C-0.12300781 1.56507812 -0.06242187 0.79421875 0 0 Z " fill="#AA7B0C" transform="translate(84,56)"/>
<path d="M0 0 C0.80566406 0.17273438 1.61132812 0.34546875 2.44140625 0.5234375 C4.63249998 0.99663145 6.81718771 1.49018216 9 2 C9 2.33 9 2.66 9 3 C7.60587891 3.07347656 7.60587891 3.07347656 6.18359375 3.1484375 C-4.01351646 3.0894599 -4.01351646 3.0894599 -13 7 C-14.66617115 7.04063832 -16.33388095 7.042721 -18 7 C-18.268125 7.61875 -18.53625 8.2375 -18.8125 8.875 C-20 11 -20 11 -23 13 C-22.16966681 7.60283425 -18.17730626 5.10122021 -14 2 C-9.19956479 -1.00664201 -5.51821661 -1.23684165 0 0 Z " fill="#563D3E" transform="translate(62,31)"/>
<path d="M0 0 C0.515625 0.268125 1.03125 0.53625 1.5625 0.8125 C3.52502289 1.76860089 5.53806512 2.62062277 7.5625 3.4375 C11.33538672 5.15244851 12.92540624 6.41638814 15.1875 9.75 C16.34908289 12.96669107 16.30802415 15.6117343 16 19 C14.48046875 20.71484375 14.48046875 20.71484375 13 22 C12.5978125 20.85724609 12.5978125 20.85724609 12.1875 19.69140625 C9.59067828 12.84912272 6.68905184 7.89172601 1.57421875 2.64453125 C0 1 0 1 0 0 Z " fill="#E0DEE2" transform="translate(84,35)"/>
<path d="M0 0 C2.13586678 3.20380017 2.23132175 4.01939967 2.125 7.6875 C2.10695313 8.49574219 2.08890625 9.30398437 2.0703125 10.13671875 C2.04710938 10.75160156 2.02390625 11.36648437 2 12 C1.67 12 1.34 12 1 12 C0.89042969 11.43410156 0.78085937 10.86820313 0.66796875 10.28515625 C0.50941406 9.55167969 0.35085937 8.81820312 0.1875 8.0625 C0.03667969 7.33160156 -0.11414063 6.60070313 -0.26953125 5.84765625 C-0.51058594 5.23792969 -0.75164063 4.62820312 -1 4 C-4.59264452 2.80245183 -7.22717474 2.66905042 -11 3 C-13.58333333 4.41666667 -13.58333333 4.41666667 -15 7 C-15.41973199 11.65698348 -15.41973199 11.65698348 -14 16 C-10.04 16 -6.08 16 -2 16 C-5 19 -5 19 -8.375 19.375 C-12.15387866 18.98408152 -14.01176893 18.28511788 -17 16 C-18.62342342 12.75315316 -18.47167894 10.5965519 -18 7 C-13.90132558 -0.02629901 -7.78619886 -1.78191616 0 0 Z " fill="#A59083" transform="translate(61,36)"/>
<path d="M0 0 C4.92356226 1.72990025 6.95962842 3.6128379 10.0625 7.75 C15.72654266 14.60468225 24.23559465 18.9302513 32 23 C31.01 23.66 30.02 24.32 29 25 C20.78311047 20.01447152 13.49345617 15.18525295 7 8 C6.04713974 7.05693778 5.0895045 6.11864988 4.125 5.1875 C2 3 2 3 0 0 Z " fill="#A99FA0" transform="translate(11,82)"/>
<path d="M0 0 C0.66 0 1.32 0 2 0 C2.14695312 0.88751953 2.14695312 0.88751953 2.296875 1.79296875 C3.68402809 9.12335533 6.66070515 12.85139425 12 18 C10.8553125 17.5359375 10.8553125 17.5359375 9.6875 17.0625 C7.81210323 16.32106407 5.91315348 15.63771783 4 15 C4.33 15.66 4.66 16.32 5 17 C1.80375738 15.46162154 -1.21605574 13.71133468 -4.25 11.875 C-5.14203125 11.33617188 -6.0340625 10.79734375 -6.953125 10.2421875 C-7.62859375 9.83226563 -8.3040625 9.42234375 -9 9 C-6.45297384 7.72648692 -5.5717055 8.19808075 -2.875 8.9375 C-1.78832031 9.22947266 -1.78832031 9.22947266 -0.6796875 9.52734375 C-0.12539062 9.68332031 0.42890625 9.83929688 1 10 C0.67 9.01 0.34 8.02 0 7 C-0.03954234 4.66700175 -0.04401732 2.33291811 0 0 Z " fill="#918385" transform="translate(9,69)"/>
<path d="M0 0 C1.84765625 0.8203125 1.84765625 0.8203125 2.84765625 2.8203125 C2.10322266 3.23990234 2.10322266 3.23990234 1.34375 3.66796875 C-6.54435375 8.32299772 -11.98304501 13.64848697 -16.15234375 21.8203125 C-17.15234375 19.8203125 -17.15234375 19.8203125 -16.02734375 16.0078125 C-14.43023154 12.00783779 -12.40062831 9.69947382 -9.15234375 6.8203125 C-8.57871094 6.19511719 -8.00507813 5.56992187 -7.4140625 4.92578125 C-6.81207031 4.27222656 -6.21007812 3.61867187 -5.58984375 2.9453125 C-5.03167969 2.32914063 -4.47351562 1.71296875 -3.8984375 1.078125 C-2.15234375 -0.1796875 -2.15234375 -0.1796875 0 0 Z " fill="#ACA1B2" transform="translate(31.15234375,40.1796875)"/>
<path d="M0 0 C0.66 0.33 1.32 0.66 2 1 C0.02 3.31 -1.96 5.62 -4 8 C-4.33 7.01 -4.66 6.02 -5 5 C-3.35 3.35 -1.7 1.7 0 0 Z M-6 8 C-6 11 -6 11 -8 14 C-7.34 14.33 -6.68 14.66 -6 15 C-5.5859375 17.94140625 -5.5859375 17.94140625 -5.375 21.5625 C-5.30023437 22.76003906 -5.22546875 23.95757812 -5.1484375 25.19140625 C-5.09945313 26.11824219 -5.05046875 27.04507813 -5 28 C-5.99 28.33 -6.98 28.66 -8 29 C-9.18231585 25.45305244 -9.22186116 22.19322247 -9.25 18.5 C-9.270625 17.82324219 -9.29125 17.14648438 -9.3125 16.44921875 C-9.35188564 11.45708857 -9.35188564 11.45708857 -7.484375 9.03125 C-6.99453125 8.6909375 -6.5046875 8.350625 -6 8 Z " fill="#E4DEE4" transform="translate(28,45)"/>
<path d="M0 0 C-1.38082898 3.14756649 -2.94799155 5.13883972 -5.4765625 7.453125 C-6.146875 8.071875 -6.8171875 8.690625 -7.5078125 9.328125 C-8.55582031 10.27945313 -8.55582031 10.27945313 -9.625 11.25 C-10.33140625 11.8996875 -11.0378125 12.549375 -11.765625 13.21875 C-13.50572178 14.81775785 -15.25056662 16.41122239 -17 18 C-17.61743164 16.15234375 -17.61743164 16.15234375 -18 14 C-14.30093335 9.20121084 -6.68755796 0 0 0 Z " fill="#8B8494" transform="translate(41,28)"/>
<path d="M0 0 C1.20779006 2.85477649 1.01121976 3.96898066 -0.0625 6.9375 C-2.9383843 11.4832526 -6.52474931 14.01649954 -11 17 C-14.13671875 17.1953125 -14.13671875 17.1953125 -17.6875 17.125 C-19.45673828 17.09792969 -19.45673828 17.09792969 -21.26171875 17.0703125 C-22.16535156 17.04710938 -23.06898437 17.02390625 -24 17 C-24.33 16.01 -24.66 15.02 -25 14 C-24.28714844 14.03480469 -23.57429688 14.06960937 -22.83984375 14.10546875 C-15.51081127 14.31261502 -10.67729019 13.86011459 -4.75 9.25 C-2.47492079 6.32489816 -1.32947894 3.45664523 0 0 Z " fill="#361709" transform="translate(82,65)"/>
<path d="M0 0 C0 4.0436392 -1.7041209 5.72017272 -4 9 C-4.433125 9.86625 -4.86625 10.7325 -5.3125 11.625 C-7.72863845 15.02549115 -10.23498528 16.22017486 -14 18 C-14.66 17.67 -15.32 17.34 -16 17 C-15.2575 16.278125 -14.515 15.55625 -13.75 14.8125 C-10.98732731 12.09288953 -10.98732731 12.09288953 -8.8125 9.1875 C-8.214375 8.465625 -7.61625 7.74375 -7 7 C-6.34 7 -5.68 7 -5 7 C-4.9175 6.21625 -4.835 5.4325 -4.75 4.625 C-4 2 -4 2 -1.9375 0.6875 C-1.298125 0.460625 -0.65875 0.23375 0 0 Z " fill="#A18F8E" transform="translate(105,82)"/>
<path d="M0 0 C10.08420484 -0.80554299 17.50018577 0.25406604 26 6 C26.33 6.66 26.66 7.32 27 8 C23.5646486 7.19509883 20.23530258 6.13536769 16.875 5.0625 C11.2956998 3.32881915 5.75564593 1.98742458 0 1 C0 0.67 0 0.34 0 0 Z " fill="#492F2F" transform="translate(59,30)"/>
<path d="M0 0 C5.53966039 0.75540823 5.53966039 0.75540823 7.93261719 2.02685547 C10.26273853 3.12367451 11.76860194 3.23187712 14.328125 3.1953125 C15.12734375 3.18886719 15.9265625 3.18242188 16.75 3.17578125 C17.575 3.15902344 18.4 3.14226562 19.25 3.125 C20.51070312 3.11146484 20.51070312 3.11146484 21.796875 3.09765625 C23.86470604 3.07415817 25.93238995 3.03828908 28 3 C23.6201122 7.07708075 19.27732305 6.47646831 13.5703125 6.36328125 C8.8780043 5.88583632 4.91637564 4.66274672 1 2 C0.67 1.34 0.34 0.68 0 0 Z " fill="#B17909" transform="translate(50,86)"/>
<path d="M0 0 C3.96 0.33 7.92 0.66 12 1 C10.02 1.99 10.02 1.99 8 3 C8 3.66 8 4.32 8 5 C9.32 4.67 10.64 4.34 12 4 C12.33 5.32 12.66 6.64 13 8 C11.56138706 7.91253716 10.12402492 7.80434652 8.6875 7.6875 C7.88699219 7.62949219 7.08648437 7.57148437 6.26171875 7.51171875 C3.55675136 6.89971404 2.64431021 6.2109648 1 4 C0.67 2.68 0.34 1.36 0 0 Z " fill="#D2A310" transform="translate(55,81)"/>
<path d="M0 0 C5.40893181 4.59759204 7.18357778 9.5756994 7.75 16.4375 C7.85005759 18.29083941 7.9390792 20.14496169 8 22 C7.34 22.33 6.68 22.66 6 23 C4.24836544 19.22777911 3.77509973 16.333361 3.875 12.1875 C3.89304687 11.21167969 3.91109375 10.23585938 3.9296875 9.23046875 C3.96449219 8.12638672 3.96449219 8.12638672 4 7 C3.34 7 2.68 7 2 7 C0 4 0 4 0 0 Z " fill="#83797C" transform="translate(107,44)"/>
<path d="M0 0 C3.95732891 1.36362666 6.64310393 3.16130062 9.8125 5.875 C14.02677745 9.35004137 18.01936152 11.7863829 23 14 C22.67 14.99 22.34 15.98 22 17 C13.72094339 12.84047398 5.34555671 7.74243537 0 0 Z " fill="#B5ACAC" transform="translate(18,87)"/>
<path d="M0 0 C0.33 0 0.66 0 1 0 C0.98839844 0.89203125 0.97679687 1.7840625 0.96484375 2.703125 C0.95582031 3.87359375 0.94679688 5.0440625 0.9375 6.25 C0.92589844 7.41015625 0.91429687 8.5703125 0.90234375 9.765625 C0.88993743 13.16366549 0.88993743 13.16366549 2 17 C-2.455 16.01 -2.455 16.01 -7 15 C-6.01 14.67 -5.02 14.34 -4 14 C-3.896875 12.989375 -3.79375 11.97875 -3.6875 10.9375 C-2.96295233 6.78781792 -1.77730734 3.78643737 0 0 Z " fill="#756168" transform="translate(9,63)"/>
<path d="M0 0 C0.33 0 0.66 0 1 0 C1.80206975 6.31629925 2.15819062 12.57632477 2.25 18.9375 C2.27126953 19.68314209 2.29253906 20.42878418 2.31445312 21.19702148 C2.34853774 26.53917562 2.34853774 26.53917562 0.484375 29.00390625 C-0.00546875 29.33261719 -0.4953125 29.66132812 -1 30 C-1.20272358 19.97644511 -0.58039956 10.00152811 0 0 Z " fill="#80550A" transform="translate(91,48)"/>
<path d="M0 0 C1.10630091 2.21260182 1.23058377 3.73406466 1.4375 6.1875 C2.01587369 11.80856934 3.21810737 17.03233459 6 22 C2.59331478 20.59033715 0.9326062 19.1391504 -1 16 C-1.58203125 13.125 -1.58203125 13.125 -1.8125 10 C-1.90144531 8.96875 -1.99039062 7.9375 -2.08203125 6.875 C-1.99870915 3.9547588 -1.52548523 2.45020022 0 0 Z " fill="#AD9EA5" transform="translate(13,62)"/>
<path d="M0 0 C0.99 0 1.98 0 3 0 C3.33 0.66 3.66 1.32 4 2 C4.66 1.67 5.32 1.34 6 1 C6.33 2.65 6.66 4.3 7 6 C7.99 6.33 8.98 6.66 10 7 C10.6875 9.0625 10.6875 9.0625 11 11 C8.875 11 8.875 11 6 10 C0 3.60655738 0 3.60655738 0 0 Z " fill="#7E4921" transform="translate(36,77)"/>
<path d="M0 0 C2.6645814 1.01070329 3.95195872 1.9399484 5.75 4.1875 C7.31685106 7.71291489 7.42448242 10.17965826 7 14 C5.5 15.9375 5.5 15.9375 4 17 C3.87625 15.824375 3.7525 14.64875 3.625 13.4375 C3.04422104 8.76637781 2.12038712 4.24077425 0 0 Z " fill="#D6D4D6" transform="translate(93,40)"/>
<path d="M0 0 C2.61525625 0.37926876 3.77967536 0.7696606 5.6328125 2.70703125 C6.37144531 3.74923828 6.37144531 3.74923828 7.125 4.8125 C7.87136719 5.84310547 7.87136719 5.84310547 8.6328125 6.89453125 C12.12201592 12.26790451 12.12201592 12.26790451 11.625 15.25 C11.41875 15.8275 11.2125 16.405 11 17 C8.59917042 14.85329722 7.45989972 13.10633002 6.4375 10.0625 C6.18871094 9.36125 5.93992187 8.66 5.68359375 7.9375 C5.45800781 7.298125 5.23242188 6.65875 5 6 C4.11935073 3.64630193 4.11935073 3.64630193 3 2 C2.01 1.67 1.02 1.34 0 1 C0 0.67 0 0.34 0 0 Z " fill="#5C3C28" transform="translate(84,38)"/>
<path d="M0 0 C0.66 0.66 1.32 1.32 2 2 C-6.72324723 10.08118081 -6.72324723 10.08118081 -12 12 C-14.171875 11.5625 -14.171875 11.5625 -16 11 C-15.26394531 10.62488281 -14.52789062 10.24976562 -13.76953125 9.86328125 C-8.43798228 7.06721132 -3.924431 4.60105704 0 0 Z " fill="#7F5118" transform="translate(88,81)"/>
<path d="M0 0 C1.9451 2.91765 2.45276317 4.62537285 3 8 C4.98 8 6.96 8 9 8 C9 8.33 9 8.66 9 9 C8.278125 9 7.55625 9 6.8125 9 C2.4695034 10.54417657 1.10347459 14.07053045 -1 18 C-1.33 17.01 -1.66 16.02 -2 15 C-1.34 14.01 -0.68 13.02 0 12 C0.24219315 9.02550392 0.24219315 9.02550392 0.125 5.8125 C0.10695313 4.72582031 0.08890625 3.63914062 0.0703125 2.51953125 C0.04710938 1.68808594 0.02390625 0.85664062 0 0 Z " fill="#675656" transform="translate(117,62)"/>
<path d="M0 0 C0.66 0 1.32 0 2 0 C3.07966345 1.1144913 4.15723595 2.23105568 5.2265625 3.35546875 C9.13764496 6.98226548 13.64865272 9.92890901 18 13 C17.01 13.495 17.01 13.495 16 14 C9.84303861 10.760553 4.18388283 6.62346306 -1 2 C-0.67 1.34 -0.34 0.68 0 0 Z " fill="#A5999C" transform="translate(21,86)"/>
<path d="M0 0 C1.2077558 3.62326739 0.54311128 4.64146369 -1 8 C-1.66 8 -2.32 8 -3 8 C-3.268125 8.598125 -3.53625 9.19625 -3.8125 9.8125 C-4.98493467 11.97224808 -6.19369282 13.35790256 -8 15 C-8.66 14.67 -9.32 14.34 -10 14 C-9.52949219 13.40832031 -9.05898437 12.81664063 -8.57421875 12.20703125 C-3.9441876 6.33987937 -3.9441876 6.33987937 0 0 Z " fill="#B1A3A5" transform="translate(101,81)"/>
<path d="M0 0 C0.99 0 1.98 0 3 0 C3 4.95 3 9.9 3 15 C2.34 15 1.68 15 1 15 C0.67 10.05 0.34 5.1 0 0 Z " fill="#643D09" transform="translate(92,52)"/>
<path d="M0 0 C0.66 0 1.32 0 2 0 C2.33 4.62 2.66 9.24 3 14 C2.01 14.66 1.02 15.32 0 16 C0 10.72 0 5.44 0 0 Z " fill="#968D92" transform="translate(109,51)"/>
<path d="M0 0 C0.33 0 0.66 0 1 0 C1.46069608 4.6069608 1.79772667 8.66065377 -1 12.5625 C-5.02947544 15.83644879 -6.94253151 15.51431883 -12 15 C-12 14.67 -12 14.34 -12 14 C-10.9275 13.773125 -9.855 13.54625 -8.75 13.3125 C-4.50570704 11.82699746 -3.22597628 10.85265126 -1 7 C-0.19777849 3.310252 -0.19777849 3.310252 0 0 Z " fill="#7F6E66" transform="translate(63,41)"/>
<path d="M0 0 C0.66 0.33 1.32 0.66 2 1 C-0.82522609 5.67248931 -3.67760044 8.65996398 -8 12 C-7.84595887 6.91664275 -4.97931568 4.64245282 -1.49609375 1.35546875 C-1.00238281 0.90816406 -0.50867188 0.46085937 0 0 Z " fill="#968E9E" transform="translate(31,34)"/>
<path d="M0 0 C1.75128818 0.28382946 3.50100003 0.57739529 5.25 0.875 C6.71179687 1.11863281 6.71179687 1.11863281 8.203125 1.3671875 C10.77264117 1.94855848 12.72071056 2.70840265 15 4 C11.77208445 6.1519437 10.71599191 6.20086443 7 6 C7 5.34 7 4.68 7 4 C4.69 3.01 2.38 2.02 0 1 C0 0.67 0 0.34 0 0 Z " fill="#A89C9D" transform="translate(42,101)"/>
<path d="M0 0 C4.84688192 0.78175515 9.3766367 2.39844278 14 4 C13.67 4.66 13.34 5.32 13 6 C7.57689095 5.56615128 4.29855944 4.35497322 0 1 C0 0.67 0 0.34 0 0 Z " fill="#865525" transform="translate(45,88)"/>
<path d="M0 0 C4.6138567 1.49271834 7.49459542 3.73360028 11 7 C11.33 7.99 11.66 8.98 12 10 C9.00745382 8.59808647 6.4045389 6.96632511 3.75 5 C3.04359375 4.484375 2.3371875 3.96875 1.609375 3.4375 C0.81273438 2.7259375 0.81273438 2.7259375 0 2 C0 1.34 0 0.68 0 0 Z " fill="#BEB4B6" transform="translate(23,86)"/>
<path d="M0 0 C4.29718953 1.38914475 6.70687757 3.38031985 9.8125 6.625 C10.99779297 7.85089844 10.99779297 7.85089844 12.20703125 9.1015625 C12.79871094 9.72804688 13.39039062 10.35453125 14 11 C13.67 11.66 13.34 12.32 13 13 C12.56429687 12.55269531 12.12859375 12.10539062 11.6796875 11.64453125 C8.74182818 8.66215891 5.81164172 5.76928956 2.5625 3.125 C1.716875 2.42375 0.87125 1.7225 0 1 C0 0.67 0 0.34 0 0 Z " fill="#7B7778" transform="translate(93,31)"/>
<path d="M0 0 C0.66 0.33 1.32 0.66 2 1 C0.7260411 3.03833424 -0.61061923 5.03852126 -2 7 C-2.66 7 -3.32 7 -4 7 C-4.33 7.99 -4.66 8.98 -5 10 C-7.0625 10.6875 -7.0625 10.6875 -9 11 C-7.8829081 7.98385187 -6.3874224 6.35491331 -3.9375 4.375 C-0.99175287 2.32880603 -0.99175287 2.32880603 0 0 Z " fill="#A79595" transform="translate(98,89)"/>
<path d="M0 0 C1.77178053 0.956581 3.54239076 1.91532988 5.3125 2.875 C6.79169922 3.67550781 6.79169922 3.67550781 8.30078125 4.4921875 C11 6 11 6 14 8 C8.29290936 7.53411505 4.84060277 6.06242216 0 3 C0 2.01 0 1.02 0 0 Z " fill="#955608" transform="translate(46,84)"/>
<path d="M0 0 C0.66 0.66 1.32 1.32 2 2 C2.99 2 3.98 2 5 2 C5 3.98 5 5.96 5 8 C3.68 7.67 2.36 7.34 1 7 C0.67 4.69 0.34 2.38 0 0 Z " fill="#7A4927" transform="translate(33,68)"/>
<path d="M0 0 C1.85625 -0.061875 1.85625 -0.061875 3.75 -0.125 C4.79414062 -0.15980469 4.79414062 -0.15980469 5.859375 -0.1953125 C8 0 8 0 12 2 C12 4.97 12 7.94 12 11 C11.67 11 11.34 11 11 11 C10.34 8.36 9.68 5.72 9 3 C4.545 2.01 4.545 2.01 0 1 C0 0.67 0 0.34 0 0 Z " fill="#AF9E95" transform="translate(51,37)"/>
<path d="M0 0 C0.721875 0.268125 1.44375 0.53625 2.1875 0.8125 C1.8575 1.4725 1.5275 2.1325 1.1875 2.8125 C-0.4625 2.8125 -2.1125 2.8125 -3.8125 2.8125 C-4.080625 3.43125 -4.34875 4.05 -4.625 4.6875 C-5.8125 6.8125 -5.8125 6.8125 -8.8125 8.8125 C-8.46907251 5.72165263 -7.55294345 4.48805431 -5.5625 2 C-2.8125 -0.1875 -2.8125 -0.1875 0 0 Z " fill="#70554E" transform="translate(47.8125,35.1875)"/>
<path d="M0 0 C0.66 0 1.32 0 2 0 C1.34 1.32 0.68 2.64 0 4 C-0.66 4 -1.32 4 -2 4 C-2.2475 4.598125 -2.495 5.19625 -2.75 5.8125 C-4.16370012 8.28647521 -5.65055383 9.43370255 -8 11 C-8.66 10.67 -9.32 10.34 -10 10 C-9.0925 9.278125 -8.185 8.55625 -7.25 7.8125 C-5.07692682 6.01868959 -3.53916537 4.42395671 -1.75 2.1875 C-1.1725 1.465625 -0.595 0.74375 0 0 Z " fill="#9C700C" transform="translate(88,78)"/>
<path d="M0 0 C-2.55274874 2.45605371 -3.85890643 2.98802939 -7.453125 3.29296875 C-8.70609375 3.25816406 -9.9590625 3.22335938 -11.25 3.1875 C-12.51328125 3.16042969 -13.7765625 3.13335937 -15.078125 3.10546875 C-16.04234375 3.07066406 -17.0065625 3.03585938 -18 3 C-18 2.67 -18 2.34 -18 2 C-17.22914062 1.93941406 -16.45828125 1.87882812 -15.6640625 1.81640625 C-14.15972656 1.69072266 -14.15972656 1.69072266 -12.625 1.5625 C-11.62726563 1.48128906 -10.62953125 1.40007812 -9.6015625 1.31640625 C-6.12454261 0.89352545 -3.63101996 -0.09555316 0 0 Z " fill="#A26F07" transform="translate(78,89)"/>
<path d="M0 0 C3.80635497 3.20760251 7.54563567 6.40746109 11 10 C6.03297196 8.72936492 3.28106063 6.95657311 0 3 C0 2.01 0 1.02 0 0 Z " fill="#E3DAD2" transform="translate(38,82)"/>
<path d="M0 0 C2 3 2 3 2 5 C2.99 5.33 3.98 5.66 5 6 C5.6875 8.0625 5.6875 8.0625 6 10 C4.1875 9.9375 4.1875 9.9375 2 9 C0.1875 5.5625 0.1875 5.5625 -1 2 C-0.67 1.34 -0.34 0.68 0 0 Z " fill="#86480D" transform="translate(41,78)"/>
<path d="M0 0 C0.66 0 1.32 0 2 0 C2.33 2.97 2.66 5.94 3 9 C2.34 9 1.68 9 1 9 C-0.4783226 6.04335481 -0.06032783 3.25770263 0 0 Z " fill="#9D8B94" transform="translate(9,69)"/>
<path d="M0 0 C4.51478398 0.53115106 7.34666857 2.36620292 11 5 C8 6 8 6 4.375 4.75 C1 3 1 3 0 0 Z " fill="#503329" transform="translate(75,32)"/>
<path d="M0 0 C3.99996286 1.33332095 4.83782337 3.4957827 7 7 C5.1875 6.8125 5.1875 6.8125 3 6 C0 1.71428571 0 1.71428571 0 0 Z " fill="#D19A09" transform="translate(55,81)"/>
<path d="M0 0 C0.33 0 0.66 0 1 0 C3.14285714 7.42857143 3.14285714 7.42857143 4 11 C3.01 11 2.02 11 1 11 C-0.28317892 7.15046324 -0.06643637 4.05261865 0 0 Z " fill="#DDD6D9" transform="translate(22,73)"/>
<path d="M0 0 C0.66 0 1.32 0 2 0 C1.43454163 3.95820859 0.19097652 6.6659053 -2 10 C-3 8 -3 8 -2.44140625 6.0546875 C-2.15136719 5.33539063 -1.86132812 4.61609375 -1.5625 3.875 C-1.27503906 3.15054688 -0.98757812 2.42609375 -0.69140625 1.6796875 C-0.46324219 1.12539063 -0.23507813 0.57109375 0 0 Z " fill="#A698A5" transform="translate(17,52)"/>
<path d="M0 0 C0.66 0.33 1.32 0.66 2 1 C-1.96 4.465 -1.96 4.465 -6 8 C-6.66 7.34 -7.32 6.68 -8 6 C-5.36 4.02 -2.72 2.04 0 0 Z " fill="#A69FB0" transform="translate(47,32)"/>
<path d="M0 0 C0.99 0.33 1.98 0.66 3 1 C3.33 2.65 3.66 4.3 4 6 C3.01 6 2.02 6 1 6 C-0.0625 4.125 -0.0625 4.125 -1 2 C-0.67 1.34 -0.34 0.68 0 0 Z " fill="#B4860B" transform="translate(83,67)"/>
<path d="M0 0 C1.98 0.99 1.98 0.99 4 2 C3.67 4.31 3.34 6.62 3 9 C2.34 8.67 1.68 8.34 1 8 C0.40644386 5.35139573 0.25790731 2.70802678 0 0 Z " fill="#C1820B" transform="translate(52,78)"/>
<path d="M0 0 C2.31 0 4.62 0 7 0 C3.93882432 2.62386487 3.26826873 3 -1 3 C-0.67 2.01 -0.34 1.02 0 0 Z " fill="#B5A8A7" transform="translate(78,100)"/>
<path d="M0 0 C0.66 0.66 1.32 1.32 2 2 C0.68 3.32 -0.64 4.64 -2 6 C-2.99 5.67 -3.98 5.34 -5 5 C-3.35 3.35 -1.7 1.7 0 0 Z " fill="#764D12" transform="translate(88,81)"/>
</svg>
